<mxfile host="app.diagrams.net" modified="2022-04-18T10:50:55.062Z" agent="5.0 (Windows NT 10.0; Win64; x64) AppleWebKit/537.36 (KHTML, like Gecko) Chrome/100.0.4896.88 Safari/537.36" etag="OCEK6rMdE4FoixyLUX14" version="17.4.0" type="github">
  <diagram id="iTst1WwoAqpEM0BVoYrt" name="Page-1">
    <mxGraphModel dx="948" dy="511" grid="1" gridSize="10" guides="1" tooltips="1" connect="1" arrows="1" fold="1" page="1" pageScale="1" pageWidth="850" pageHeight="1100" math="0" shadow="0">
      <root>
        <mxCell id="0" />
        <mxCell id="1" parent="0" />
        <mxCell id="CbeMvrMTRxl2meX-_Dco-2" value="Ya" style="edgeStyle=orthogonalEdgeStyle;rounded=0;orthogonalLoop=1;jettySize=auto;html=1;entryX=0.5;entryY=0;entryDx=0;entryDy=0;" edge="1" parent="1" source="CbeMvrMTRxl2meX-_Dco-1" target="CbeMvrMTRxl2meX-_Dco-3">
          <mxGeometry relative="1" as="geometry">
            <mxPoint x="325" y="300" as="targetPoint" />
          </mxGeometry>
        </mxCell>
        <mxCell id="CbeMvrMTRxl2meX-_Dco-1" value="Cek apakah button&lt;br&gt;masukkan air di click" style="rhombus;whiteSpace=wrap;html=1;" vertex="1" parent="1">
          <mxGeometry x="250" y="90" width="150" height="150" as="geometry" />
        </mxCell>
        <mxCell id="CbeMvrMTRxl2meX-_Dco-7" style="edgeStyle=orthogonalEdgeStyle;rounded=0;orthogonalLoop=1;jettySize=auto;html=1;entryX=0;entryY=0.5;entryDx=0;entryDy=0;" edge="1" parent="1" source="CbeMvrMTRxl2meX-_Dco-3" target="CbeMvrMTRxl2meX-_Dco-5">
          <mxGeometry relative="1" as="geometry" />
        </mxCell>
        <mxCell id="CbeMvrMTRxl2meX-_Dco-3" value="add 15 ke pool" style="rounded=0;whiteSpace=wrap;html=1;" vertex="1" parent="1">
          <mxGeometry x="265" y="300" width="120" height="60" as="geometry" />
        </mxCell>
        <mxCell id="CbeMvrMTRxl2meX-_Dco-4" style="edgeStyle=orthogonalEdgeStyle;rounded=0;orthogonalLoop=1;jettySize=auto;html=1;entryX=0.5;entryY=0;entryDx=0;entryDy=0;exitX=0.5;exitY=1;exitDx=0;exitDy=0;" edge="1" parent="1" source="CbeMvrMTRxl2meX-_Dco-5" target="CbeMvrMTRxl2meX-_Dco-6">
          <mxGeometry relative="1" as="geometry">
            <mxPoint x="335" y="650" as="targetPoint" />
          </mxGeometry>
        </mxCell>
        <mxCell id="CbeMvrMTRxl2meX-_Dco-5" value="Cek apakah button&lt;br&gt;masukkan baju di click" style="rhombus;whiteSpace=wrap;html=1;" vertex="1" parent="1">
          <mxGeometry x="450" y="250" width="160" height="160" as="geometry" />
        </mxCell>
        <mxCell id="CbeMvrMTRxl2meX-_Dco-8" style="edgeStyle=orthogonalEdgeStyle;rounded=0;orthogonalLoop=1;jettySize=auto;html=1;entryX=1;entryY=0.5;entryDx=0;entryDy=0;" edge="1" parent="1" source="CbeMvrMTRxl2meX-_Dco-6" target="CbeMvrMTRxl2meX-_Dco-9">
          <mxGeometry relative="1" as="geometry">
            <mxPoint x="360" y="480" as="targetPoint" />
          </mxGeometry>
        </mxCell>
        <mxCell id="CbeMvrMTRxl2meX-_Dco-6" value="Add 1 ke pool" style="rounded=0;whiteSpace=wrap;html=1;" vertex="1" parent="1">
          <mxGeometry x="470" y="450" width="120" height="60" as="geometry" />
        </mxCell>
        <mxCell id="CbeMvrMTRxl2meX-_Dco-10" value="Ya" style="edgeStyle=orthogonalEdgeStyle;rounded=0;orthogonalLoop=1;jettySize=auto;html=1;entryX=1;entryY=0.5;entryDx=0;entryDy=0;" edge="1" parent="1" source="CbeMvrMTRxl2meX-_Dco-9" target="CbeMvrMTRxl2meX-_Dco-11">
          <mxGeometry relative="1" as="geometry">
            <mxPoint x="160" y="480" as="targetPoint" />
          </mxGeometry>
        </mxCell>
        <mxCell id="CbeMvrMTRxl2meX-_Dco-13" value="Tidak" style="edgeStyle=orthogonalEdgeStyle;rounded=0;orthogonalLoop=1;jettySize=auto;html=1;" edge="1" parent="1" source="CbeMvrMTRxl2meX-_Dco-9" target="CbeMvrMTRxl2meX-_Dco-12">
          <mxGeometry relative="1" as="geometry" />
        </mxCell>
        <mxCell id="CbeMvrMTRxl2meX-_Dco-9" value="Selama nilai pool kurang dari 5" style="rhombus;whiteSpace=wrap;html=1;" vertex="1" parent="1">
          <mxGeometry x="250" y="415" width="130" height="130" as="geometry" />
        </mxCell>
        <mxCell id="CbeMvrMTRxl2meX-_Dco-15" style="edgeStyle=orthogonalEdgeStyle;rounded=0;orthogonalLoop=1;jettySize=auto;html=1;" edge="1" parent="1" source="CbeMvrMTRxl2meX-_Dco-11">
          <mxGeometry relative="1" as="geometry">
            <mxPoint x="310" y="700" as="targetPoint" />
            <Array as="points">
              <mxPoint x="90" y="700" />
            </Array>
          </mxGeometry>
        </mxCell>
        <mxCell id="CbeMvrMTRxl2meX-_Dco-11" value="Enable button masukkan baju" style="rounded=0;whiteSpace=wrap;html=1;" vertex="1" parent="1">
          <mxGeometry x="30" y="450" width="120" height="60" as="geometry" />
        </mxCell>
        <mxCell id="CbeMvrMTRxl2meX-_Dco-14" style="edgeStyle=orthogonalEdgeStyle;rounded=0;orthogonalLoop=1;jettySize=auto;html=1;entryX=0.5;entryY=0;entryDx=0;entryDy=0;" edge="1" parent="1" source="CbeMvrMTRxl2meX-_Dco-12" target="CbeMvrMTRxl2meX-_Dco-17">
          <mxGeometry relative="1" as="geometry">
            <mxPoint x="315" y="760" as="targetPoint" />
          </mxGeometry>
        </mxCell>
        <mxCell id="CbeMvrMTRxl2meX-_Dco-12" value="Disable button masukkan baju" style="whiteSpace=wrap;html=1;" vertex="1" parent="1">
          <mxGeometry x="255" y="610" width="120" height="60" as="geometry" />
        </mxCell>
        <mxCell id="CbeMvrMTRxl2meX-_Dco-22" style="edgeStyle=orthogonalEdgeStyle;rounded=0;orthogonalLoop=1;jettySize=auto;html=1;entryX=0.5;entryY=0;entryDx=0;entryDy=0;" edge="1" parent="1" source="CbeMvrMTRxl2meX-_Dco-17" target="CbeMvrMTRxl2meX-_Dco-24">
          <mxGeometry relative="1" as="geometry">
            <mxPoint x="315" y="940" as="targetPoint" />
          </mxGeometry>
        </mxCell>
        <mxCell id="CbeMvrMTRxl2meX-_Dco-25" value="Tidak" style="edgeLabel;html=1;align=center;verticalAlign=middle;resizable=0;points=[];" vertex="1" connectable="0" parent="CbeMvrMTRxl2meX-_Dco-22">
          <mxGeometry x="-0.2571" y="-1" relative="1" as="geometry">
            <mxPoint as="offset" />
          </mxGeometry>
        </mxCell>
        <mxCell id="CbeMvrMTRxl2meX-_Dco-17" value="Selama nilai pool kurang dari 20" style="rhombus;whiteSpace=wrap;html=1;" vertex="1" parent="1">
          <mxGeometry x="250" y="750" width="130" height="130" as="geometry" />
        </mxCell>
        <mxCell id="CbeMvrMTRxl2meX-_Dco-18" value="Ya" style="edgeStyle=orthogonalEdgeStyle;rounded=0;orthogonalLoop=1;jettySize=auto;html=1;entryX=1;entryY=0.5;entryDx=0;entryDy=0;exitX=0;exitY=0.5;exitDx=0;exitDy=0;" edge="1" parent="1" target="CbeMvrMTRxl2meX-_Dco-21" source="CbeMvrMTRxl2meX-_Dco-17">
          <mxGeometry relative="1" as="geometry">
            <mxPoint x="150" y="810" as="targetPoint" />
            <mxPoint x="250" y="805" as="sourcePoint" />
            <Array as="points">
              <mxPoint x="210" y="815" />
              <mxPoint x="210" y="815" />
            </Array>
          </mxGeometry>
        </mxCell>
        <mxCell id="CbeMvrMTRxl2meX-_Dco-20" style="edgeStyle=orthogonalEdgeStyle;rounded=0;orthogonalLoop=1;jettySize=auto;html=1;" edge="1" parent="1" source="CbeMvrMTRxl2meX-_Dco-21">
          <mxGeometry relative="1" as="geometry">
            <mxPoint x="420" y="960" as="targetPoint" />
            <Array as="points">
              <mxPoint x="80" y="1030" />
            </Array>
          </mxGeometry>
        </mxCell>
        <mxCell id="CbeMvrMTRxl2meX-_Dco-21" value="Enable button masukkan air" style="rounded=0;whiteSpace=wrap;html=1;" vertex="1" parent="1">
          <mxGeometry x="20" y="785" width="120" height="60" as="geometry" />
        </mxCell>
        <mxCell id="CbeMvrMTRxl2meX-_Dco-26" style="edgeStyle=orthogonalEdgeStyle;rounded=0;orthogonalLoop=1;jettySize=auto;html=1;entryX=0;entryY=0.5;entryDx=0;entryDy=0;" edge="1" parent="1" source="CbeMvrMTRxl2meX-_Dco-24" target="CbeMvrMTRxl2meX-_Dco-28">
          <mxGeometry relative="1" as="geometry">
            <mxPoint x="470" y="960" as="targetPoint" />
          </mxGeometry>
        </mxCell>
        <mxCell id="CbeMvrMTRxl2meX-_Dco-24" value="Disable button masukkan air" style="whiteSpace=wrap;html=1;" vertex="1" parent="1">
          <mxGeometry x="255" y="930" width="120" height="60" as="geometry" />
        </mxCell>
        <mxCell id="CbeMvrMTRxl2meX-_Dco-28" value="Cek apakah button&amp;nbsp;&lt;br&gt;Pembuangan air&lt;br&gt;di click" style="rhombus;whiteSpace=wrap;html=1;" vertex="1" parent="1">
          <mxGeometry x="480" y="887.5" width="145" height="145" as="geometry" />
        </mxCell>
      </root>
    </mxGraphModel>
  </diagram>
</mxfile>
